<svg xmlns="http://www.w3.org/2000/svg" width="400" height="400"><g fill-rule="evenodd"><path d="M198.382 18.944c-8.189 2.209-10.374 14.107-3.74 20.366 2.203 2.079 6.776 3.39 9.551 2.739 6.229-1.461 6.119-1.469 7.174.469 2.14 3.931 2.553 4.651 3.272 5.716a28.077 28.077 0 0 1 1.491 2.566c.386.77.967 1.85 1.29 2.4.323.55.54 1.45.483 2l-.103 1-18 .226c-17.421.218-18.077.255-20.4 1.128a92.062 92.062 0 0 1-4.283 1.485c-1.035.32-1.993.76-2.127.977-.135.218-.861.653-1.613.968-4.025 1.681-12.462 10.57-13.599 14.326-.148.489-.596 1.431-.995 2.091-2.38 3.938-2.527 6.29-2.683 42.799-.149 35.145-.131 35.769 1.122 37.022.762.762 1.779.778 49.702.778 41.61 0 49.039.085 49.7.568.749.547.783 1.404.99 24.7.118 13.272.253 24.177.3 24.232 1.152 1.338 42.046-39.435 44.285-44.154.342-.722.78-1.409.973-1.529.65-.402 3.104-5.628 3.393-7.229.158-.873.681-2.758 1.161-4.188l.874-2.6-.127-45.2c-.115-41.144-.185-45.245-.776-45.7-.507-.39-7.482-.5-31.746-.5-34.708 0-32.798.163-30.964-2.636.602-.919 1.738-2.926 3.388-5.985a28.2 28.2 0 0 1 1.542-2.462c.486-.682.883-1.413.883-1.625 0-2.249 2.495-2.901 7.037-1.839 9.066 2.12 16.918-6.877 13.717-15.717-4.576-12.642-23.129-9.228-23.16 4.261-.003 1.49-.247 3.031-.57 3.603-.31.55-.945 1.72-1.41 2.6a119.13 119.13 0 0 1-1.93 3.459 547.132 547.132 0 0 0-2.192 3.8 423.48 423.48 0 0 1-2.284 3.941c-.648 1.1-1.729 2.997-2.403 4.216-2.31 4.174-5.383 5.729-7.673 3.884-.814-.656-3.694-5.287-5.41-8.7-.388-.77-1.113-1.909-1.613-2.531-.5-.622-.909-1.362-.909-1.646 0-.283-.337-.944-.748-1.469-1.927-2.456-4.075-7.396-4.416-10.154-1.275-10.325-7.338-14.915-16.454-12.456m10.468 70.074c11.099 7.351 6.699 23.182-6.442 23.182-12.582 0-17.156-15.743-6.67-22.957 3.149-2.167 10.003-2.285 13.112-.225m41.557-.249c11.219 7.696 7.188 23.415-6.007 23.427-12.787.012-17.477-15.692-6.848-22.928 2.981-2.03 10.214-2.311 12.855-.499M88.6 399.6c-.147.238.329.4 1.176.4.783 0 1.424-.18 1.424-.4 0-.22-.529-.4-1.176-.4-.647 0-1.288.18-1.424.4" fill="#6566fa"/><path d="M133.014 119.281c-2.2 1.274-37.898 37.803-40.574 41.519a145.532 145.532 0 0 1-2.412 3.263c-.455.585-.828 1.284-.828 1.553 0 .269-.386 1.114-.858 1.878-.472.763-1.459 3.935-2.195 7.047l-1.336 5.659-.006 43.238c-.005 41.384.026 43.266.726 43.9.668.604 3.436.662 31.572.662 28.228 0 30.896.056 31.505.665.845.845.574 2.337-.789 4.345-.56.826-1.019 1.724-1.019 1.997 0 .272-.252.705-.561.961-.309.256-1.038 1.403-1.621 2.549-3.109 6.113-4.391 7.263-6.694 6.006-6.725-3.671-16.67 2.581-16.719 10.51-.093 15.043 22.267 14.926 23.065-.122.154-2.895.398-4.183.941-4.957.403-.575 1.019-1.655 1.369-2.4.349-.745 1.257-2.344 2.017-3.554s1.751-2.92 2.203-3.8c.452-.88 1.444-2.59 2.205-3.8.761-1.21 1.744-2.943 2.186-3.851 3.196-6.571 7.845-5.881 12.054 1.791.525.957 1.405 2.514 1.955 3.459 7.006 12.038 6.98 11.985 7.597 15.401 1.374 7.599 1.218 7.152 3.286 9.415 7.131 7.802 19.734 3.067 19.693-7.399-.034-8.834-7.43-13.782-16.066-10.749-2.526.887-4.11.514-4.11-.967 0-.207-.397-.935-.883-1.617a28.459 28.459 0 0 1-1.543-2.462c-.363-.671-1.13-2.031-1.705-3.021-3.087-5.317-3.674-7.249-2.407-7.925.44-.235 8.095-.462 18.938-.561 16.254-.149 18.392-.243 20-.879.99-.391 2.61-.998 3.6-1.35 9.538-3.385 18.742-14.782 19.96-24.717.646-5.267.609-71.839-.04-72.488-.368-.368-11.929-.48-49.6-.48-58.113 0-50.695 1.154-50.778-7.9-.234-25.618-.587-41.048-.942-41.154-.22-.066-.754.085-1.186.335m-.504 35.42c1.378 1.523 2.468 8.942 1.739 11.844l-.264 1.055-16.293-.011-16.292-.011-2.6-1.16c-3.242-1.447-4.025-2.872-3.199-5.823.495-1.766 3.571-4.995 4.76-4.995.247 0 .762-.18 1.144-.399.382-.22 5.645-.552 11.695-.737 18.347-.564 18.589-.561 19.31.237m6.357 59.059c10.077 5.58 9.206 19.308-1.51 23.806-14.824 6.223-25.042-16.408-10.757-23.825 4.44-2.305 8.079-2.3 12.267.019m55.383-.242c10.609 5.38 9.751 20.075-1.413 24.213-15.13 5.609-24.599-16.522-10.288-24.045 4.102-2.157 7.677-2.208 11.701-.168m10.71 123.453c-1.799.783-1.76.353-1.76 19.386 0 22.378.333 24.091 5.332 27.458 2.225 1.498 9.391 2.074 11.594.932 2.036-1.055 4.17-3.199 5.189-5.214l1.093-2.159-.104-19.982-.104-19.981-1.153-.553c-.997-.478-3.657-.197-4.334.458-.047.046-.182 8.782-.3 19.413l-.213 19.329-1.685 1.571c-2.885 2.691-6.175 2.151-8-1.314L209.4 374.2l-.105-17.6c-.117-19.595-.078-19.081-1.504-19.731-1.253-.571-1.287-.57-2.831.102m33.04-.289c-2.986.385-2.801-1.221-2.787 24.28.015 26.945-.519 24.378 5.105 24.572 7.906.274 11.271-.857 14.151-4.757 2.31-3.127 2.24-12.865-.132-18.226l-.853-1.928.849-1.475c4.14-7.194 1.314-20.396-4.691-21.913-1.715-.433-9.651-.81-11.642-.553m-97.536.818c-.931.791-2.464 5.062-2.464 6.867 0 .655-.432 2.596-.96 4.312-.527 1.717-1.071 4.049-1.208 5.184-.138 1.135-.602 3.087-1.032 4.337-.43 1.25-.893 3.202-1.028 4.337-.135 1.135-.664 3.503-1.176 5.263-.512 1.76-1.122 4.46-1.355 6-.233 1.54-.788 3.831-1.232 5.09-1.622 4.593-.965 6.457 2.258 6.408 2.668-.04 3.199-1.081 5.106-10.02.683-3.202.469-3.054 4.621-3.216 3.93-.154 5.206.471 5.206 2.551 0 .557.364 2.094.81 3.417.445 1.322.919 3.2 1.052 4.172.3 2.187 1.171 3.018 3.249 3.101 3.031.121 3.784-2.578 2.09-7.499-.439-1.276-1.047-3.87-1.352-5.762-.305-1.893-.831-4.104-1.169-4.913-.339-.81-.737-2.52-.887-3.8-.149-1.281-.681-3.769-1.183-5.529a101.25 101.25 0 0 1-1.555-6.4c-.354-1.76-.911-4.28-1.238-5.6-.327-1.32-.799-3.462-1.048-4.76-.722-3.762-3.295-5.416-5.505-3.54m22.198.031c-.928 1.026-1.022 45.824-.098 47.087.798 1.091 3.609.986 4.775-.179l.861-.861V338.329l-.944-.764c-1.23-.996-3.707-1.014-4.594-.034m12.482.034-.944.764V383.578l.861.861c.578.578 1.398.876 2.488.904 2.738.072 2.824-.24 2.838-10.274l.013-8.731 1.169-1.169c1.057-1.057 1.424-1.169 3.819-1.169 4.471 0 4.529.132 4.684 10.818.145 9.951.332 10.542 3.325 10.542 2.939 0 2.789 1.201 2.919-23.474.136-26.099.261-25.086-3.083-25.086-2.869 0-3.018.482-3.14 10.141-.131 10.394-.418 11.059-4.766 11.059-4.517 0-4.927-.941-4.927-11.312 0-7.789-.066-8.624-.731-9.226-.99-.895-3.359-.841-4.525.103m72.056 5.936c3.237 1.617 3.782 10.733.776 12.977-1.812 1.353-4.889 1.413-5.909.116-1.287-1.635-1.315-11.117-.038-12.74 1.004-1.277 3.044-1.416 5.171-.353m-103.628 13.866c.851 1.025 1.356 5.657.754 6.918-1.158 2.429-4.328 1.392-4.324-1.414.006-3.887 2.159-7.205 3.57-5.504m103.028 7.378c4.203 1.912 4.666 11.752.651 13.828-4.362 2.256-6.051.437-6.051-6.521 0-7.609 1.191-9.221 5.4-7.307" fill="#fb690d"/><path d="M0 200v200h44.176c29.02 0 44.262-.137 44.424-.4.322-.521 2.6-.521 2.6 0 0 .266 51.733.4 154.4.4H400V0H0v200M206.366 18.83c4.575.981 7.592 5.459 8.47 12.57.341 2.758 2.489 7.698 4.416 10.154.411.525.748 1.186.748 1.469 0 .284.409 1.024.909 1.646.5.622 1.225 1.761 1.613 2.531 5.547 11.032 8.949 12.284 13.083 4.816a215.953 215.953 0 0 1 2.403-4.216 423.48 423.48 0 0 0 2.284-3.941 547.132 547.132 0 0 1 2.192-3.8 119.13 119.13 0 0 0 1.93-3.459c.465-.88 1.1-2.05 1.41-2.6.323-.572.567-2.113.57-3.603.031-13.489 18.584-16.903 23.16-4.261 3.201 8.84-4.651 17.837-13.717 15.717-4.542-1.062-7.037-.41-7.037 1.839 0 .212-.397.943-.883 1.625a28.2 28.2 0 0 0-1.542 2.462c-1.65 3.059-2.786 5.066-3.388 5.985-1.834 2.799-3.744 2.636 30.964 2.636 24.264 0 31.239.11 31.746.5.591.455.661 4.556.776 45.7l.127 45.2-.874 2.6c-.48 1.43-1.003 3.315-1.161 4.188-.289 1.601-2.743 6.827-3.393 7.229-.193.12-.631.807-.973 1.529-2.239 4.719-43.133 45.492-44.285 44.154-.047-.055-.182-10.96-.3-24.232-.207-23.296-.241-24.153-.99-24.7-.661-.483-8.09-.568-49.7-.568-47.923 0-48.94-.016-49.702-.778-1.253-1.253-1.271-1.877-1.122-37.022.156-36.509.303-38.861 2.683-42.799.399-.66.847-1.602.995-2.091 1.137-3.756 9.574-12.645 13.599-14.326.752-.315 1.478-.75 1.613-.968.134-.217 1.092-.657 2.127-.977a92.062 92.062 0 0 0 4.283-1.485c2.323-.873 2.979-.91 20.4-1.128l18-.226.103-1c.057-.55-.16-1.45-.483-2-.323-.55-.904-1.63-1.29-2.4a28.077 28.077 0 0 0-1.491-2.566c-.719-1.065-1.132-1.785-3.272-5.716-1.055-1.938-.945-1.93-7.174-.469-11.401 2.675-18.415-14.007-9.036-21.491 2.455-1.959 6.922-2.647 11.209-1.728m-8.164 69.043c-5.91 1.652-9.641 9.818-7.427 16.254 3.757 10.921 18.892 11.17 23.388.385 4.032-9.673-5.463-19.572-15.961-16.639m41.798.081c-13.23 4.341-9.616 24.255 4.4 24.242 13.195-.012 17.226-15.731 6.007-23.427-1.496-1.027-8.17-1.549-10.407-.815m-104.221 29.394c.094.469.273 11.326.399 24.128s.335 23.554.465 23.893c.211.549 5.577.627 49.568.723l49.331.108 1.129.843 1.129.843.12 35.357.121 35.357-1.059 4c-2.441 9.224-7.166 16.255-13.979 20.8-1.319.88-2.637 1.825-2.929 2.1-.292.275-.761.5-1.043.5-.282 0-1.309.424-2.284.942-4.502 2.394-10.227 3.058-26.359 3.058-8.098 0-15.007.109-15.355.243-.683.262-.864 1.567-.268 1.935.201.124 1.124 1.62 2.052 3.324 3.757 6.901 4.425 7.79 5.666 7.541.619-.123 2.307-.442 3.749-.708 14.694-2.708 21.411 16.956 8.298 24.289-8.529 4.77-18.608-1.429-19.229-11.824-.217-3.64.118-2.835-4.786-11.523-2.098-3.717-3.286-5.781-4.303-7.477-.527-.88-1.318-2.242-1.756-3.027-2.415-4.321-5.734-3.428-8.917 2.401a225.276 225.276 0 0 1-3.67 6.392c-4.658 7.772-5.74 10.172-6.009 13.339-.886 10.395-10.026 16.313-18.509 11.984-14.252-7.271-7.101-27.678 8.553-24.407 3.684.77 4.672.492 5.621-1.579.379-.827 1.029-2.011 1.446-2.631 1.977-2.943 3.802-6.677 3.565-7.295-.353-.92-1.838-.966-31.627-.972L85.218 270l-.709-1.083c-.668-1.021-.709-3.728-.709-47.3V175.4l1.386-4.193c.768-2.321 2.197-5.505 3.2-7.13.998-1.616 2.028-3.329 2.29-3.807.774-1.413 7.666-8.579 25.924-26.952 18.053-18.167 18.642-18.657 19.179-15.97m-3.979 96.445c-.22.091-1.455.464-2.745.828-9.607 2.712-10.336 17.407-1.055 21.288 12.249 5.123 22.176-11.064 12.016-19.593-1.742-1.463-6.933-3.057-8.216-2.523m53.8.542c-12.604 3.836-10.652 22.033 2.378 22.169 7.631.079 11.726-3.783 11.773-11.104.028-4.282-.369-5.308-3.083-7.98-3.509-3.453-6.824-4.377-11.068-3.085m-17 122.093c.807.8 1.516 42.461.806 47.399-.547 3.814-7.306 4.344-8.965.704-.638-1.402-.617-45.854.023-47.05 1.643-3.07 5.587-3.58 8.136-1.053m12.3-.097 1.5 1.431v8.696c0 9.763.056 9.942 3.115 9.942 2.936 0 2.885.165 2.885-9.388 0-9.547.113-10.122 2.248-11.441 2.116-1.309 3.692-1.203 5.693.383l1.659 1.313v47.528l-1.66 1.202c-1.953 1.415-3.365 1.513-5.572.387-2.233-1.139-2.368-1.776-2.368-11.13 0-9.418.054-9.254-3.066-9.254-2.905 0-2.934.094-2.934 9.555 0 8.919-.134 9.523-2.396 10.794-2.499 1.405-6.387.453-6.966-1.705-.628-2.337-.241-46.862.415-47.798 1.804-2.575 5.052-2.8 7.447-.515m27.203-1.476c.468.251 1.312.882 1.874 1.404l1.023.947.2 19.03.2 19.03 1.306 1.167c1.773 1.583 3.069 1.513 4.687-.253 1.751-1.912 1.799-2.501 1.804-21.854.003-17.486.046-17.876 2.093-19.124 2.215-1.351 4.626-.772 6.151 1.478 1.002 1.478 1.168 34.84.2 40.232-1.35 7.521-7.67 11.363-15.896 9.664-1.726-.357-3.32-.756-3.542-.887-1.973-1.166-3.691-3.076-4.936-5.489l-1.446-2.8-.149-18.165c-.179-21.965-.17-22.069 2.019-23.655 1.73-1.253 3.027-1.466 4.412-.725m41.388.742c7.248 2.394 10.927 12.682 7.471 20.893-1.322 3.141-1.318 5.488.015 8.655 2.448 5.817.953 14.699-3.153 18.734-4.131 4.061-18.192 4.718-20.211.946-.271-.506-.413-8.789-.413-24.033v-23.26l1.424-1.266c2.49-2.213 9.268-2.518 14.867-.669m-104.385.381c1.737 1.259 1.88 1.543 2.296 4.598.149 1.088.589 2.798.979 3.8.39 1.003.833 2.946.983 4.317.151 1.371.632 3.531 1.071 4.8.438 1.269.983 3.642 1.211 5.274.228 1.631.751 3.881 1.162 5 .411 1.118.935 3.43 1.166 5.138.231 1.707.701 3.777 1.045 4.6.594 1.418 1.161 4.561 1.654 9.166.385 3.601-2.685 5.446-6.358 3.821-2.053-.908-3.625-4.42-4.135-9.236-.329-3.11-1.111-4.056-3.354-4.056-3.387 0-4.09.875-4.658 5.8-.768 6.662-5.6 10.352-9.167 7.001-1.469-1.38-1.18-7.179.62-12.401.417-1.21.945-3.624 1.174-5.365.228-1.741.577-3.361.775-3.6.197-.239.567-1.605.821-3.035.254-1.43.839-3.95 1.3-5.6.461-1.65 1.007-4.08 1.212-5.4.206-1.32.726-3.52 1.156-4.889.43-1.368.963-3.618 1.184-5 .84-5.247 4.288-7.323 7.863-4.733m98.194 8.475c-.349.354-.5 2.106-.5 5.819v5.313l1 .251c3.116.782 4.694-1.357 4.52-6.127-.155-4.239-3.041-7.261-5.02-5.256m-.02 22.027c-.732.732-.661 10.472.082 11.088 2.98 2.474 6.362-4.449 4.618-9.453-.628-1.803-3.525-2.81-4.7-1.635" fill="#343541"/><path d="M116.6 133.318c-18.258 18.373-25.15 25.539-25.924 26.952-.262.478-1.292 2.191-2.29 3.807-1.003 1.625-2.432 4.809-3.2 7.13L83.8 175.4v46.217c0 43.572.041 46.279.709 47.3l.709 1.083 29.691.005c29.789.006 31.274.052 31.627.972.237.618-1.588 4.352-3.565 7.295-.417.62-1.067 1.804-1.446 2.631-.949 2.071-1.937 2.349-5.621 1.579-15.654-3.271-22.805 17.136-8.553 24.407 8.483 4.329 17.623-1.589 18.509-11.984.269-3.167 1.351-5.567 6.009-13.339a225.276 225.276 0 0 0 3.67-6.392c3.183-5.829 6.502-6.722 8.917-2.401.438.785 1.229 2.147 1.756 3.027 1.017 1.696 2.205 3.76 4.303 7.477 4.904 8.688 4.569 7.883 4.786 11.523.621 10.395 10.7 16.594 19.229 11.824 13.113-7.333 6.396-26.997-8.298-24.289-1.442.266-3.13.585-3.749.708-1.241.249-1.909-.64-5.666-7.541-.928-1.704-1.851-3.2-2.052-3.324-.596-.368-.415-1.673.268-1.935.348-.134 7.257-.243 15.355-.243 16.132 0 21.857-.664 26.359-3.058.975-.518 2.002-.942 2.284-.942.282 0 .751-.225 1.043-.5.292-.275 1.61-1.22 2.929-2.1 6.813-4.545 11.538-11.576 13.979-20.8l1.059-4-.121-35.357-.12-35.357-1.129-.843-1.129-.843-49.331-.108c-43.991-.096-49.357-.174-49.568-.723-.13-.339-.339-11.091-.465-23.893-.253-25.711-.204-24.882-1.474-25.223-.778-.209-3.306 2.174-18.104 17.065m18.242 3.115c.134 9.552.269 20.202.3 23.667.083 9.054-7.335 7.9 50.778 7.9 37.671 0 49.232.112 49.6.48.649.649.686 67.221.04 72.488-1.218 9.935-10.422 21.332-19.96 24.717-.99.352-2.61.959-3.6 1.35-1.608.636-3.746.73-20 .879-10.843.099-18.498.326-18.938.561-1.267.676-.68 2.608 2.407 7.925.575.99 1.342 2.35 1.705 3.021.363.672 1.057 1.78 1.543 2.462.486.682.883 1.41.883 1.617 0 1.481 1.584 1.854 4.11.967 13.016-4.572 22.337 10.881 11.874 19.685-4.174 3.512-11.555 2.78-15.501-1.537-2.068-2.263-1.912-1.816-3.286-9.415-.617-3.416-.591-3.363-7.597-15.401-.55-.945-1.43-2.502-1.955-3.459-4.209-7.672-8.858-8.362-12.054-1.791-.442.908-1.425 2.641-2.186 3.851-.761 1.21-1.753 2.92-2.205 3.8-.452.88-1.443 2.59-2.203 3.8-.76 1.21-1.668 2.809-2.017 3.554-.35.745-.966 1.825-1.369 2.4-.543.774-.787 2.062-.941 4.957-.798 15.048-23.158 15.165-23.065.122.049-7.929 9.994-14.181 16.719-10.51 2.303 1.257 3.585.107 6.694-6.006.583-1.146 1.312-2.293 1.621-2.549.309-.256.561-.689.561-.961 0-.273.459-1.171 1.019-1.997 1.363-2.008 1.634-3.5.789-4.345-.609-.609-3.277-.665-31.505-.665-28.136 0-30.904-.058-31.572-.662-.7-.634-.731-2.516-.726-43.9l.006-43.238 1.336-5.659c.736-3.112 1.723-6.284 2.195-7.047.472-.764.858-1.609.858-1.878 0-.269.373-.968.828-1.553.455-.585 1.541-2.053 2.412-3.263 2.676-3.716 38.374-40.245 40.574-41.519 1.55-.898 1.58-.611 1.828 17.152m-5.242 75.929c-12.72 4.335-13.535 20.025-1.309 25.212 12.001 5.091 23.042-10.378 14.686-20.576-2.992-3.651-9.574-5.932-13.377-4.636m55.8-.042c-10.363 3.721-13.339 14.736-6.049 22.385 9.311 9.768 26.106-.557 21.693-13.336-2.214-6.411-10.172-11.014-15.644-9.049m-48.832 2.213c9.462 2.593 10.243 17.527 1.115 21.342-1.943.812-7.773.833-9.683.034-9.281-3.881-8.552-18.576 1.055-21.288 1.29-.364 2.525-.737 2.745-.828.516-.215 2.29.061 4.768.74m54.966-.237c3.389.884 7.388 4.485 7.917 7.129 1.855 9.264-2.639 15.171-11.473 15.079-13.03-.136-14.982-18.333-2.378-22.169 2.825-.86 2.79-.86 5.934-.039m-27.556 120.472c-1.252.284-2.892 1.55-3.514 2.713-.64 1.196-.661 45.648-.023 47.05 1.659 3.64 8.418 3.11 8.965-.704.71-4.938.001-46.599-.806-47.399-1.122-1.112-3.411-1.935-4.622-1.66m11.775.407c-3.135 1.406-2.954-.173-2.948 25.614.007 25.713-.096 24.388 1.982 25.555 1.922 1.081 3.302 1.082 5.217.005 2.262-1.271 2.396-1.875 2.396-10.794 0-9.461.029-9.555 2.934-9.555 3.12 0 3.066-.164 3.066 9.254 0 9.354.135 9.991 2.368 11.13 2.207 1.126 3.619 1.028 5.572-.387l1.66-1.202v-47.528l-1.659-1.313c-2.001-1.586-3.577-1.692-5.693-.383-2.135 1.319-2.248 1.894-2.248 11.441 0 9.553.051 9.388-2.885 9.388-3.059 0-3.115-.179-3.115-9.942v-8.696l-1.5-1.431c-1.915-1.826-3.072-2.086-5.147-1.156m27.938.405c-2.189 1.586-2.198 1.69-2.019 23.655l.149 18.165 1.446 2.8c1.245 2.413 2.963 4.323 4.936 5.489.222.131 1.816.53 3.542.887 8.226 1.699 14.546-2.143 15.896-9.664.968-5.392.802-38.754-.2-40.232-1.525-2.25-3.936-2.829-6.151-1.478-2.047 1.248-2.09 1.638-2.093 19.124-.005 19.353-.053 19.942-1.804 21.854-1.618 1.766-2.914 1.836-4.687.253l-1.306-1.167-.2-19.03-.2-19.03-1.023-.947c-2.388-2.213-3.937-2.38-6.286-.679m33.233-.861c-.482.155-1.517.851-2.3 1.547l-1.424 1.266v23.26c0 15.244.142 23.527.413 24.033 2.019 3.772 16.08 3.115 20.211-.946 4.106-4.035 5.601-12.917 3.153-18.734-1.333-3.167-1.337-5.514-.015-8.655 2.37-5.631.988-14.265-2.92-18.247-2.823-2.877-12.755-4.921-17.118-3.524m-96.802.863c-1.776 1.083-2.413 2.218-2.879 5.129-.221 1.382-.754 3.632-1.184 5-.43 1.369-.95 3.569-1.156 4.889-.205 1.32-.751 3.75-1.212 5.4-.461 1.65-1.046 4.17-1.3 5.6-.254 1.43-.624 2.796-.821 3.035-.198.239-.547 1.859-.775 3.6-.229 1.741-.757 4.155-1.174 5.365-1.8 5.222-2.089 11.021-.62 12.401 3.567 3.351 8.399-.339 9.167-7.001.568-4.925 1.271-5.8 4.658-5.8 2.243 0 3.025.946 3.354 4.056.51 4.816 2.082 8.328 4.135 9.236 3.673 1.625 6.743-.22 6.358-3.821-.493-4.605-1.06-7.748-1.654-9.166-.344-.823-.814-2.893-1.045-4.6-.231-1.708-.755-4.02-1.166-5.138-.411-1.119-.934-3.369-1.162-5-.228-1.632-.773-4.005-1.211-5.274-.439-1.269-.92-3.429-1.071-4.8-.15-1.371-.593-3.314-.983-4.317-.39-1.002-.83-2.712-.979-3.8-.416-3.055-.559-3.339-2.296-4.598-1.896-1.374-3.209-1.478-4.984-.396m67.669 1.287c1.426.65 1.387.136 1.504 19.731l.105 17.6 1.115 2.115c1.825 3.465 5.115 4.005 8 1.314l1.685-1.571.213-19.329c.118-10.631.253-19.367.3-19.413.677-.655 3.337-.936 4.334-.458l1.153.553.104 19.981.104 19.982-1.093 2.159c-1.019 2.015-3.153 4.159-5.189 5.214-2.203 1.142-9.369.566-11.594-.932-4.999-3.367-5.332-5.08-5.332-27.458 0-9.62.117-17.796.26-18.169.498-1.297 2.824-2.006 4.331-1.319m41.851.366c6.005 1.517 8.831 14.719 4.691 21.913l-.849 1.475.853 1.928c3.418 7.727 2.374 16.692-2.417 20.753-2.871 2.433-14.524 3.372-16.091 1.296-.993-1.316-.926-46.208.071-47.107 1.177-1.06 9.917-1.224 13.742-.258m-105.066.505c.597.596 1.105 1.801 1.393 3.3.249 1.298.721 3.44 1.048 4.76.327 1.32.884 3.84 1.238 5.6a101.25 101.25 0 0 0 1.555 6.4c.502 1.76 1.034 4.248 1.183 5.529.15 1.28.548 2.99.887 3.8.338.809.864 3.02 1.169 4.913.305 1.892.913 4.486 1.352 5.762 1.694 4.921.941 7.62-2.09 7.499-2.078-.083-2.949-.914-3.249-3.101-.133-.972-.607-2.85-1.052-4.172-.446-1.323-.81-2.86-.81-3.417 0-2.08-1.276-2.705-5.206-2.551-4.152.162-3.938.014-4.621 3.216-1.907 8.939-2.438 9.98-5.106 10.02-3.223.049-3.88-1.815-2.258-6.408.444-1.259.999-3.55 1.232-5.09.233-1.54.843-4.24 1.355-6 .512-1.76 1.041-4.128 1.176-5.263.135-1.135.598-3.087 1.028-4.337.43-1.25.894-3.202 1.032-4.337.137-1.135.681-3.467 1.208-5.184.528-1.716.96-3.657.96-4.312 0-5.384 3.895-9.309 6.576-6.627m22.68-.175.944.764V383.578l-.861.861c-1.166 1.165-3.977 1.27-4.775.179-.924-1.263-.83-46.061.098-47.087.887-.98 3.364-.962 4.594.034m12.413-.103c.665.602.731 1.437.731 9.226 0 10.371.41 11.312 4.927 11.312 4.348 0 4.635-.665 4.766-11.059.122-9.659.271-10.141 3.14-10.141 3.344 0 3.219-1.013 3.083 25.086-.13 24.675.02 23.474-2.919 23.474-2.993 0-3.18-.591-3.325-10.542-.155-10.686-.213-10.818-4.684-10.818-2.395 0-2.762.112-3.819 1.169l-1.169 1.169-.013 8.731c-.014 10.034-.1 10.346-2.838 10.274-1.09-.028-1.91-.326-2.488-.904l-.861-.861V338.329l.944-.764c1.166-.944 3.535-.998 4.525-.103m62.36 6.392c-1.277 1.623-1.249 11.105.038 12.74 1.02 1.297 4.097 1.237 5.909-.116 3.006-2.244 2.461-11.36-.776-12.977-2.127-1.063-4.167-.924-5.171.353m5.171 1.565c3.292 3.289.635 11.43-3.4 10.417l-1-.251v-5.313c0-6.622 1.25-8.001 4.4-4.853m-105.574 12.155c-1.551 1.551-2.166 6.229-.976 7.419 2.238 2.238 4.44-.335 3.8-4.441-.571-3.668-1.332-4.47-2.824-2.978m100.969 7.088c-2.008 2.008-2.035 12.896-.035 14.232 4.189 2.797 8.587-3.546 7.038-10.152-.874-3.723-4.972-6.111-7.003-4.08m3.966 1.793c2.279 1.038 2.689 7.819.597 9.865-3.301 3.227-4.358 2.187-4.358-4.289 0-6.132.597-7.018 3.761-5.576" fill="#fcbf96"/><path d="M113.2 154.464c-6.05.185-11.313.517-11.695.737-.382.219-.897.399-1.144.399-1.189 0-4.265 3.229-4.76 4.995-.826 2.951-.043 4.376 3.199 5.823l2.6 1.16 16.292.011 16.293.011.264-1.055c.363-1.443-.102-8.506-.655-9.961-1.108-2.914.391-2.758-20.394-2.12" fill="#cc4207"/></g></svg>